  0
SECTION
  2
HEADER
  9
$ACADVER
  1
AC1014
  9
$HANDSEED
  5
FFFF
  9
$MEASUREMENT
 70
     1
  0
ENDSEC
  0
SECTION
  2
TABLES
  0
TABLE
  2
VPORT
  5
8
330
0
100
AcDbSymbolTable
 70
     4
  0
VPORT
  5
2E
330
8
100
AcDbSymbolTableRecord
100
AcDbViewportTableRecord
  2
*ACTIVE
 70
     0
 10
0.0
 20
0.0
 11
1.0
 21
1.0
 12
210.0
 22
148.5
 13
0.0
 23
0.0
 14
10.0
 24
10.0
 15
10.0
 25
10.0
 16
0.0
 26
0.0
 36
1.0
 17
0.0
 27
0.0
 37
0.0
 40
341.0
 41
1.24
 42
50.0
 43
0.0
 44
0.0
 50
0.0
 51
0.0
 71
     0
 72
   100
 73
     1
 74
     3
 75
     0
 76
     0
 77
     0
 78
     0
  0
ENDTAB
  0
TABLE
  2
LTYPE
  5
5
330
0
100
AcDbSymbolTable
 70
     1
  0
LTYPE
  5
14
330
5
100
AcDbSymbolTableRecord
100
AcDbLinetypeTableRecord
  2
BYBLOCK
 70
     0
  3

 72
    65
 73
     0
 40
0.0
  0
LTYPE
  5
15
330
5
100
AcDbSymbolTableRecord
100
AcDbLinetypeTableRecord
  2
BYLAYER
 70
     0
  3

 72
    65
 73
     0
 40
0.0
  0
LTYPE
  5
16
330
5
100
AcDbSymbolTableRecord
100
AcDbLinetypeTableRecord
  2
CONTINUOUS
 70
     0
  3
Solid line
 72
    65
 73
     0
 40
0.0
  0
ENDTAB
  0
TABLE
  2
LAYER
  5
2
100
AcDbSymbolTable
 70
2
  0
LAYER
  5
50
100
AcDbSymbolTableRecord
100
AcDbLayerTableRecord
  2
0
 70
0
  6
CONTINUOUS
  0
LAYER
  5
51
100
AcDbSymbolTableRecord
100
AcDbLayerTableRecord
  2
Layer_1
 70
0
  6
CONTINUOUS
  0
ENDTAB
  0
TABLE
  2
STYLE
  5
3
330
0
100
AcDbSymbolTable
 70
     1
  0
STYLE
  5
11
330
3
100
AcDbSymbolTableRecord
100
AcDbTextStyleTableRecord
  2
STANDARD
 70
     0
 40
0.0
 41
1.0
 50
0.0
 71
     0
 42
2.5
  3
txt
  4

  0
ENDTAB
  0
TABLE
  2
VIEW
  5
6
330
0
100
AcDbSymbolTable
 70
     0
  0
ENDTAB
  0
TABLE
  2
UCS
  5
7
330
0
100
AcDbSymbolTable
 70
     0
  0
ENDTAB
  0
TABLE
  2
APPID
  5
9
330
0
100
AcDbSymbolTable
 70
     2
  0
APPID
  5
12
330
9
100
AcDbSymbolTableRecord
100
AcDbRegAppTableRecord
  2
ACAD
 70
     0
  0
ENDTAB
  0
TABLE
  2
DIMSTYLE
  5
A
330
0
100
AcDbSymbolTable
 70
     1
  0
DIMSTYLE
105
27
330
A
100
AcDbSymbolTableRecord
100
AcDbDimStyleTableRecord
  2
ISO-25
 70
     0
  3

  4

  5

  6

  7

 40
1.0
 41
2.5
 42
0.625
 43
3.75
 44
1.25
 45
0.0
 46
0.0
 47
0.0
 48
0.0
140
2.5
141
2.5
142
0.0
143
0.03937007874016
144
1.0
145
0.0
146
1.0
147
0.625
 71
     0
 72
     0
 73
     0
 74
     0
 75
     0
 76
     0
 77
     1
 78
     8
170
     0
171
     3
172
     1
173
     0
174
     0
175
     0
176
     0
177
     0
178
     0
270
     2
271
     2
272
     2
273
     2
274
     3
340
11
275
     0
280
     0
281
     0
282
     0
283
     0
284
     8
285
     0
286
     0
287
     3
288
     0
  0
ENDTAB
  0
TABLE
  2
BLOCK_RECORD
  5
1
330
0
100
AcDbSymbolTable
 70
     1
  0
BLOCK_RECORD
  5
1F
330
1
100
AcDbSymbolTableRecord
100
AcDbBlockTableRecord
  2
*MODEL_SPACE
  0
BLOCK_RECORD
  5
1B
330
1
100
AcDbSymbolTableRecord
100
AcDbBlockTableRecord
  2
*PAPER_SPACE
  0
ENDTAB
  0
ENDSEC
  0
SECTION
  2
BLOCKS
  0
BLOCK
  5
20
330
1F
100
AcDbEntity
  8
0
100
AcDbBlockBegin
  2
*MODEL_SPACE
 70
     0
 10
0.0
 20
0.0
 30
0.0
  3
*MODEL_SPACE
  1

  0
ENDBLK
  5
21
330
1F
100
AcDbEntity
  8
0
100
AcDbBlockEnd
  0
BLOCK
  5
1C
330
1B
100
AcDbEntity
 67
     1
  8
0
100
AcDbBlockBegin
  2
*PAPER_SPACE
  1

  0
ENDBLK
  5
1D
330
1B
100
AcDbEntity
 67
     1
  8
0
100
AcDbBlockEnd
  0
ENDSEC
  0
SECTION
  2
ENTITIES
  0
SPLINE
  5
100
100
AcDbEntity
  8
Layer_1
 62
7
100
AcDbSpline
 70
8
 71
3
 72
8
 73
4
 74
0
 40
0
 40
0
 40
0
 40
0
 40
1
 40
1
 40
1
 40
1
 10
1.149861
 20
4.281026
 30
0.0
 10
1.150113
 20
4.282291
 30
0.0
 10
1.150619
 20
4.284570
 30
0.0
 10
1.151380
 20
4.287862
 30
0.0
  0
SPLINE
  5
101
100
AcDbEntity
  8
Layer_1
 62
7
100
AcDbSpline
 70
8
 71
3
 72
8
 73
4
 74
0
 40
0
 40
0
 40
0
 40
0
 40
1
 40
1
 40
1
 40
1
 10
1.151380
 20
4.287862
 30
0.0
 10
1.152393
 20
4.291154
 30
0.0
 10
1.153532
 20
4.293685
 30
0.0
 10
1.154798
 20
4.295457
 30
0.0
  0
SPLINE
  5
102
100
AcDbEntity
  8
Layer_1
 62
7
100
AcDbSpline
 70
8
 71
3
 72
8
 73
4
 74
0
 40
0
 40
0
 40
0
 40
0
 40
1
 40
1
 40
1
 40
1
 10
1.154798
 20
4.295457
 30
0.0
 10
1.156317
 20
4.297229
 30
0.0
 10
1.158343
 20
4.298115
 30
0.0
 10
1.160874
 20
4.298115
 30
0.0
  0
SPLINE
  5
103
100
AcDbEntity
  8
Layer_1
 62
7
100
AcDbSpline
 70
8
 71
3
 72
8
 73
4
 74
0
 40
0
 40
0
 40
0
 40
0
 40
1
 40
1
 40
1
 40
1
 10
1.160874
 20
4.298115
 30
0.0
 10
1.205435
 20
4.298115
 30
0.0
 10
1.234931
 20
4.299381
 30
0.0
 10
1.249362
 20
4.301914
 30
0.0
  0
SPLINE
  5
104
100
AcDbEntity
  8
Layer_1
 62
7
100
AcDbSpline
 70
8
 71
3
 72
8
 73
4
 74
0
 40
0
 40
0
 40
0
 40
0
 40
1
 40
1
 40
1
 40
1
 10
1.249362
 20
4.301914
 30
0.0
 10
1.263287
 20
4.305459
 30
0.0
 10
1.271642
 20
4.312928
 30
0.0
 10
1.274427
 20
4.324321
 30
0.0
  0
SPLINE
  5
105
100
AcDbEntity
  8
Layer_1
 62
7
100
AcDbSpline
 70
8
 71
3
 72
8
 73
4
 74
0
 40
0
 40
0
 40
0
 40
0
 40
1
 40
1
 40
1
 40
1
 10
1.380764
 20
4.751568
 30
0.0
 10
1.383043
 20
4.757898
 30
0.0
 10
1.384182
 20
4.763594
 30
0.0
 10
1.384182
 20
4.768658
 30
0.0
  0
SPLINE
  5
106
100
AcDbEntity
  8
Layer_1
 62
7
100
AcDbSpline
 70
8
 71
3
 72
8
 73
4
 74
0
 40
0
 40
0
 40
0
 40
0
 40
1
 40
1
 40
1
 40
1
 10
1.384182
 20
4.768658
 30
0.0
 10
1.384182
 20
4.772709
 30
0.0
 10
1.375068
 20
4.774734
 30
0.0
 10
1.356839
 20
4.774734
 30
0.0
  0
LWPOLYLINE
  5
107
100
AcDbEntity
  8
Layer_1
 62
7
100
AcDbPolyline
 90
2
 70
0
 10
1.274427
 20
4.324321
 30
0.0
 10
1.380764
 20
4.751568
 30
0.0
  0
SPLINE
  5
108
100
AcDbEntity
  8
Layer_1
 62
7
100
AcDbSpline
 70
8
 71
3
 72
8
 73
4
 74
0
 40
0
 40
0
 40
0
 40
0
 40
1
 40
1
 40
1
 40
1
 10
1.311645
 20
4.774734
 30
0.0
 10
1.276959
 20
4.774734
 30
0.0
 10
1.250122
 20
4.769417
 30
0.0
 10
1.231133
 20
4.758784
 30
0.0
  0
SPLINE
  5
109
100
AcDbEntity
  8
Layer_1
 62
7
100
AcDbSpline
 70
8
 71
3
 72
8
 73
4
 74
0
 40
0
 40
0
 40
0
 40
0
 40
1
 40
1
 40
1
 40
1
 10
1.231133
 20
4.758784
 30
0.0
 10
1.212397
 20
4.748150
 30
0.0
 10
1.198599
 20
4.734098
 30
0.0
 10
1.189738
 20
4.716629
 30
0.0
  0
SPLINE
  5
10a
100
AcDbEntity
  8
Layer_1
 62
7
100
AcDbSpline
 70
8
 71
3
 72
8
 73
4
 74
0
 40
0
 40
0
 40
0
 40
0
 40
1
 40
1
 40
1
 40
1
 10
1.189738
 20
4.716629
 30
0.0
 10
1.180876
 20
4.699159
 30
0.0
 10
1.169483
 20
4.670549
 30
0.0
 10
1.155558
 20
4.630800
 30
0.0
  0
SPLINE
  5
10b
100
AcDbEntity
  8
Layer_1
 62
7
100
AcDbSpline
 70
8
 71
3
 72
8
 73
4
 74
0
 40
0
 40
0
 40
0
 40
0
 40
1
 40
1
 40
1
 40
1
 10
1.155558
 20
4.630800
 30
0.0
 10
1.153786
 20
4.626242
 30
0.0
 10
1.151127
 20
4.623963
 30
0.0
 10
1.147583
 20
4.623963
 30
0.0
  0
LWPOLYLINE
  5
10c
100
AcDbEntity
  8
Layer_1
 62
7
100
AcDbPolyline
 90
2
 70
0
 10
1.356839
 20
4.774734
 30
0.0
 10
1.311645
 20
4.774734
 30
0.0
  0
SPLINE
  5
10d
100
AcDbEntity
  8
Layer_1
 62
7
100
AcDbSpline
 70
8
 71
3
 72
8
 73
4
 74
0
 40
0
 40
0
 40
0
 40
0
 40
1
 40
1
 40
1
 40
1
 10
1.140747
 20
4.623963
 30
0.0
 10
1.135430
 20
4.623963
 30
0.0
 10
1.132771
 20
4.627255
 30
0.0
 10
1.132771
 20
4.633838
 30
0.0
  0
LWPOLYLINE
  5
10e
100
AcDbEntity
  8
Layer_1
 62
7
100
AcDbPolyline
 90
2
 70
0
 10
1.147583
 20
4.623963
 30
0.0
 10
1.140747
 20
4.623963
 30
0.0
  0
SPLINE
  5
10f
100
AcDbEntity
  8
Layer_1
 62
7
100
AcDbSpline
 70
8
 71
3
 72
8
 73
4
 74
0
 40
0
 40
0
 40
0
 40
0
 40
1
 40
1
 40
1
 40
1
 10
1.188218
 20
4.794862
 30
0.0
 10
1.189231
 20
4.799673
 30
0.0
 10
1.191763
 20
4.802078
 30
0.0
 10
1.195814
 20
4.802078
 30
0.0
  0
LWPOLYLINE
  5
110
100
AcDbEntity
  8
Layer_1
 62
7
100
AcDbPolyline
 90
2
 70
0
 10
1.132771
 20
4.633838
 30
0.0
 10
1.188218
 20
4.794862
 30
0.0
  0
SPLINE
  5
111
100
AcDbEntity
  8
Layer_1
 62
7
100
AcDbSpline
 70
8
 71
3
 72
8
 73
4
 74
0
 40
0
 40
0
 40
0
 40
0
 40
1
 40
1
 40
1
 40
1
 10
1.655342
 20
4.802078
 30
0.0
 10
1.660659
 20
4.802078
 30
0.0
 10
1.663317
 20
4.798660
 30
0.0
 10
1.663317
 20
4.791824
 30
0.0
  0
LWPOLYLINE
  5
112
100
AcDbEntity
  8
Layer_1
 62
7
100
AcDbPolyline
 90
2
 70
0
 10
1.195814
 20
4.802078
 30
0.0
 10
1.655342
 20
4.802078
 30
0.0
  0
SPLINE
  5
113
100
AcDbEntity
  8
Layer_1
 62
7
100
AcDbSpline
 70
8
 71
3
 72
8
 73
4
 74
0
 40
0
 40
0
 40
0
 40
0
 40
1
 40
1
 40
1
 40
1
 10
1.637492
 20
4.630800
 30
0.0
 10
1.637492
 20
4.629280
 30
0.0
 10
1.636606
 20
4.627761
 30
0.0
 10
1.634834
 20
4.626242
 30
0.0
  0
SPLINE
  5
114
100
AcDbEntity
  8
Layer_1
 62
7
100
AcDbSpline
 70
8
 71
3
 72
8
 73
4
 74
0
 40
0
 40
0
 40
0
 40
0
 40
1
 40
1
 40
1
 40
1
 10
1.634834
 20
4.626242
 30
0.0
 10
1.633062
 20
4.624722
 30
0.0
 10
1.631416
 20
4.623963
 30
0.0
 10
1.629897
 20
4.623963
 30
0.0
  0
LWPOLYLINE
  5
115
100
AcDbEntity
  8
Layer_1
 62
7
100
AcDbPolyline
 90
2
 70
0
 10
1.663317
 20
4.791824
 30
0.0
 10
1.637492
 20
4.630800
 30
0.0
  0
SPLINE
  5
116
100
AcDbEntity
  8
Layer_1
 62
7
100
AcDbSpline
 70
8
 71
3
 72
8
 73
4
 74
0
 40
0
 40
0
 40
0
 40
0
 40
1
 40
1
 40
1
 40
1
 10
1.622681
 20
4.623963
 30
0.0
 10
1.617618
 20
4.623963
 30
0.0
 10
1.615086
 20
4.627254
 30
0.0
 10
1.615086
 20
4.633837
 30
0.0
  0
SPLINE
  5
117
100
AcDbEntity
  8
Layer_1
 62
7
100
AcDbSpline
 70
8
 71
3
 72
8
 73
4
 74
0
 40
0
 40
0
 40
0
 40
0
 40
1
 40
1
 40
1
 40
1
 10
1.615086
 20
4.633837
 30
0.0
 10
1.620656
 20
4.670549
 30
0.0
 10
1.623441
 20
4.696500
 30
0.0
 10
1.623441
 20
4.711691
 30
0.0
  0
SPLINE
  5
118
100
AcDbEntity
  8
Layer_1
 62
7
100
AcDbSpline
 70
8
 71
3
 72
8
 73
4
 74
0
 40
0
 40
0
 40
0
 40
0
 40
1
 40
1
 40
1
 40
1
 10
1.623441
 20
4.711691
 30
0.0
 10
1.623441
 20
4.729920
 30
0.0
 10
1.619643
 20
4.743719
 30
0.0
 10
1.612048
 20
4.753086
 30
0.0
  0
SPLINE
  5
119
100
AcDbEntity
  8
Layer_1
 62
7
100
AcDbSpline
 70
8
 71
3
 72
8
 73
4
 74
0
 40
0
 40
0
 40
0
 40
0
 40
1
 40
1
 40
1
 40
1
 10
1.612048
 20
4.753086
 30
0.0
 10
1.604452
 20
4.762454
 30
0.0
 10
1.594578
 20
4.768404
 30
0.0
 10
1.582425
 20
4.770936
 30
0.0
  0
SPLINE
  5
11a
100
AcDbEntity
  8
Layer_1
 62
7
100
AcDbSpline
 70
8
 71
3
 72
8
 73
4
 74
0
 40
0
 40
0
 40
0
 40
0
 40
1
 40
1
 40
1
 40
1
 10
1.582425
 20
4.770936
 30
0.0
 10
1.570272
 20
4.773469
 30
0.0
 10
1.554448
 20
4.774735
 30
0.0
 10
1.534953
 20
4.774735
 30
0.0
  0
LWPOLYLINE
  5
11b
100
AcDbEntity
  8
Layer_1
 62
7
100
AcDbPolyline
 90
2
 70
0
 10
1.629897
 20
4.623963
 30
0.0
 10
1.622681
 20
4.623963
 30
0.0
  0
SPLINE
  5
11c
100
AcDbEntity
  8
Layer_1
 62
7
100
AcDbSpline
 70
8
 71
3
 72
8
 73
4
 74
0
 40
0
 40
0
 40
0
 40
0
 40
1
 40
1
 40
1
 40
1
 10
1.489001
 20
4.774735
 30
0.0
 10
1.475075
 20
4.774735
 30
0.0
 10
1.465708
 20
4.773469
 30
0.0
 10
1.460897
 20
4.770936
 30
0.0
  0
SPLINE
  5
11d
100
AcDbEntity
  8
Layer_1
 62
7
100
AcDbSpline
 70
8
 71
3
 72
8
 73
4
 74
0
 40
0
 40
0
 40
0
 40
0
 40
1
 40
1
 40
1
 40
1
 10
1.460897
 20
4.770936
 30
0.0
 10
1.456087
 20
4.768403
 30
0.0
 10
1.452036
 20
4.760807
 30
0.0
 10
1.448744
 20
4.748149
 30
0.0
  0
LWPOLYLINE
  5
11e
100
AcDbEntity
  8
Layer_1
 62
7
100
AcDbPolyline
 90
2
 70
0
 10
1.534953
 20
4.774735
 30
0.0
 10
1.489001
 20
4.774735
 30
0.0
  0
SPLINE
  5
11f
100
AcDbEntity
  8
Layer_1
 62
7
100
AcDbSpline
 70
8
 71
3
 72
8
 73
4
 74
0
 40
0
 40
0
 40
0
 40
0
 40
1
 40
1
 40
1
 40
1
 10
1.342028
 20
4.321282
 30
0.0
 10
1.341776
 20
4.320269
 30
0.0
 10
1.341522
 20
4.319256
 30
0.0
 10
1.341268
 20
4.318243
 30
0.0
  0
SPLINE
  5
120
100
AcDbEntity
  8
Layer_1
 62
7
100
AcDbSpline
 70
8
 71
3
 72
8
 73
4
 74
0
 40
0
 40
0
 40
0
 40
0
 40
1
 40
1
 40
1
 40
1
 10
1.341268
 20
4.318243
 30
0.0
 10
1.341268
 20
4.317229
 30
0.0
 10
1.341015
 20
4.315963
 30
0.0
 10
1.340509
 20
4.314443
 30
0.0
  0
SPLINE
  5
121
100
AcDbEntity
  8
Layer_1
 62
7
100
AcDbSpline
 70
8
 71
3
 72
8
 73
4
 74
0
 40
0
 40
0
 40
0
 40
0
 40
1
 40
1
 40
1
 40
1
 10
1.340509
 20
4.314443
 30
0.0
 10
1.340509
 20
4.307861
 30
0.0
 10
1.344433
 20
4.303683
 30
0.0
 10
1.352282
 20
4.301911
 30
0.0
  0
SPLINE
  5
122
100
AcDbEntity
  8
Layer_1
 62
7
100
AcDbSpline
 70
8
 71
3
 72
8
 73
4
 74
0
 40
0
 40
0
 40
0
 40
0
 40
1
 40
1
 40
1
 40
1
 10
1.352282
 20
4.301911
 30
0.0
 10
1.365700
 20
4.299378
 30
0.0
 10
1.394437
 20
4.298111
 30
0.0
 10
1.438491
 20
4.298111
 30
0.0
  0
SPLINE
  5
123
100
AcDbEntity
  8
Layer_1
 62
7
100
AcDbSpline
 70
8
 71
3
 72
8
 73
4
 74
0
 40
0
 40
0
 40
0
 40
0
 40
1
 40
1
 40
1
 40
1
 10
1.438491
 20
4.298111
 30
0.0
 10
1.443554
 20
4.298111
 30
0.0
 10
1.446086
 20
4.294693
 30
0.0
 10
1.446086
 20
4.287857
 30
0.0
  0
SPLINE
  5
124
100
AcDbEntity
  8
Layer_1
 62
7
100
AcDbSpline
 70
8
 71
3
 72
8
 73
4
 74
0
 40
0
 40
0
 40
0
 40
0
 40
1
 40
1
 40
1
 40
1
 10
1.446086
 20
4.287857
 30
0.0
 10
1.444314
 20
4.280515
 30
0.0
 10
1.442921
 20
4.275831
 30
0.0
 10
1.441909
 20
4.273806
 30
0.0
  0
SPLINE
  5
125
100
AcDbEntity
  8
Layer_1
 62
7
100
AcDbSpline
 70
8
 71
3
 72
8
 73
4
 74
0
 40
0
 40
0
 40
0
 40
0
 40
1
 40
1
 40
1
 40
1
 10
1.441909
 20
4.273806
 30
0.0
 10
1.440896
 20
4.271780
 30
0.0
 10
1.437984
 20
4.270767
 30
0.0
 10
1.433174
 20
4.270767
 30
0.0
  0
LWPOLYLINE
  5
126
100
AcDbEntity
  8
Layer_1
 62
7
100
AcDbPolyline
 90
2
 70
0
 10
1.448744
 20
4.748149
 30
0.0
 10
1.342028
 20
4.321282
 30
0.0
  0
SPLINE
  5
127
100
AcDbEntity
  8
Layer_1
 62
7
100
AcDbSpline
 70
8
 71
3
 72
8
 73
4
 74
0
 40
0
 40
0
 40
0
 40
0
 40
1
 40
1
 40
1
 40
1
 10
1.157837
 20
4.270767
 30
0.0
 10
1.152520
 20
4.270767
 30
0.0
 10
1.149862
 20
4.274185
 30
0.0
 10
1.149862
 20
4.281020
 30
0.0
  0
LWPOLYLINE
  5
128
100
AcDbEntity
  8
Layer_1
 62
7
100
AcDbPolyline
 90
2
 70
0
 10
1.433174
 20
4.270767
 30
0.0
 10
1.157837
 20
4.270767
 30
0.0
  0
SPLINE
  5
129
100
AcDbEntity
  8
Layer_1
 62
7
100
AcDbSpline
 70
8
 71
3
 72
8
 73
4
 74
0
 40
0
 40
0
 40
0
 40
0
 40
1
 40
1
 40
1
 40
1
 10
1.604832
 20
4.270772
 30
0.0
 10
1.599768
 20
4.270772
 30
0.0
 10
1.597236
 20
4.274190
 30
0.0
 10
1.597236
 20
4.281026
 30
0.0
  0
SPLINE
  5
12a
100
AcDbEntity
  8
Layer_1
 62
7
100
AcDbSpline
 70
8
 71
3
 72
8
 73
4
 74
0
 40
0
 40
0
 40
0
 40
0
 40
1
 40
1
 40
1
 40
1
 10
1.597236
 20
4.281026
 30
0.0
 10
1.597488
 20
4.282291
 30
0.0
 10
1.597994
 20
4.284443
 30
0.0
 10
1.598755
 20
4.287482
 30
0.0
  0
SPLINE
  5
12b
100
AcDbEntity
  8
Layer_1
 62
7
100
AcDbSpline
 70
8
 71
3
 72
8
 73
4
 74
0
 40
0
 40
0
 40
0
 40
0
 40
1
 40
1
 40
1
 40
1
 10
1.598755
 20
4.287482
 30
0.0
 10
1.599515
 20
4.290774
 30
0.0
 10
1.600527
 20
4.293306
 30
0.0
 10
1.601793
 20
4.295078
 30
0.0
  0
SPLINE
  5
12c
100
AcDbEntity
  8
Layer_1
 62
7
100
AcDbSpline
 70
8
 71
3
 72
8
 73
4
 74
0
 40
0
 40
0
 40
0
 40
0
 40
1
 40
1
 40
1
 40
1
 10
1.601793
 20
4.295078
 30
0.0
 10
1.603312
 20
4.297104
 30
0.0
 10
1.605085
 20
4.298117
 30
0.0
 10
1.607110
 20
4.298117
 30
0.0
  0
SPLINE
  5
12d
100
AcDbEntity
  8
Layer_1
 62
7
100
AcDbSpline
 70
8
 71
3
 72
8
 73
4
 74
0
 40
0
 40
0
 40
0
 40
0
 40
1
 40
1
 40
1
 40
1
 10
1.607110
 20
4.298117
 30
0.0
 10
1.638758
 20
4.298117
 30
0.0
 10
1.660785
 20
4.299890
 30
0.0
 10
1.673191
 20
4.303434
 30
0.0
  0
SPLINE
  5
12e
100
AcDbEntity
  8
Layer_1
 62
7
100
AcDbSpline
 70
8
 71
3
 72
8
 73
4
 74
0
 40
0
 40
0
 40
0
 40
0
 40
1
 40
1
 40
1
 40
1
 10
1.673191
 20
4.303434
 30
0.0
 10
1.680027
 20
4.305712
 30
0.0
 10
1.684964
 20
4.312675
 30
0.0
 10
1.688002
 20
4.324322
 30
0.0
  0
LWPOLYLINE
  5
12f
100
AcDbEntity
  8
Layer_1
 62
7
100
AcDbPolyline
 90
1
 70
1
 10
1.149862
 20
4.281020
 30
0.0
  0
SPLINE
  5
130
100
AcDbEntity
  8
Layer_1
 62
7
100
AcDbSpline
 70
8
 71
3
 72
8
 73
4
 74
0
 40
0
 40
0
 40
0
 40
0
 40
1
 40
1
 40
1
 40
1
 10
1.794719
 20
4.751569
 30
0.0
 10
1.795732
 20
4.756632
 30
0.0
 10
1.796238
 20
4.760177
 30
0.0
 10
1.796238
 20
4.762202
 30
0.0
  0
SPLINE
  5
131
100
AcDbEntity
  8
Layer_1
 62
7
100
AcDbSpline
 70
8
 71
3
 72
8
 73
4
 74
0
 40
0
 40
0
 40
0
 40
0
 40
1
 40
1
 40
1
 40
1
 10
1.796238
 20
4.762202
 30
0.0
 10
1.796238
 20
4.767772
 30
0.0
 10
1.793074
 20
4.770937
 30
0.0
 10
1.786744
 20
4.771697
 30
0.0
  0
SPLINE
  5
132
100
AcDbEntity
  8
Layer_1
 62
7
100
AcDbSpline
 70
8
 71
3
 72
8
 73
4
 74
0
 40
0
 40
0
 40
0
 40
0
 40
1
 40
1
 40
1
 40
1
 10
1.786744
 20
4.771697
 30
0.0
 10
1.777123
 20
4.773723
 30
0.0
 10
1.758514
 20
4.774736
 30
0.0
 10
1.730917
 20
4.774736
 30
0.0
  0
SPLINE
  5
133
100
AcDbEntity
  8
Layer_1
 62
7
100
AcDbSpline
 70
8
 71
3
 72
8
 73
4
 74
0
 40
0
 40
0
 40
0
 40
0
 40
1
 40
1
 40
1
 40
1
 10
1.730917
 20
4.774736
 30
0.0
 10
1.725853
 20
4.774736
 30
0.0
 10
1.723322
 20
4.778154
 30
0.0
 10
1.723322
 20
4.784990
 30
0.0
  0
SPLINE
  5
134
100
AcDbEntity
  8
Layer_1
 62
7
100
AcDbSpline
 70
8
 71
3
 72
8
 73
4
 74
0
 40
0
 40
0
 40
0
 40
0
 40
1
 40
1
 40
1
 40
1
 10
1.723322
 20
4.784990
 30
0.0
 10
1.723574
 20
4.786255
 30
0.0
 10
1.724080
 20
4.788407
 30
0.0
 10
1.724840
 20
4.791446
 30
0.0
  0
SPLINE
  5
135
100
AcDbEntity
  8
Layer_1
 62
7
100
AcDbSpline
 70
8
 71
3
 72
8
 73
4
 74
0
 40
0
 40
0
 40
0
 40
0
 40
1
 40
1
 40
1
 40
1
 10
1.724840
 20
4.791446
 30
0.0
 10
1.725600
 20
4.794738
 30
0.0
 10
1.726613
 20
4.797270
 30
0.0
 10
1.727879
 20
4.799042
 30
0.0
  0
SPLINE
  5
136
100
AcDbEntity
  8
Layer_1
 62
7
100
AcDbSpline
 70
8
 71
3
 72
8
 73
4
 74
0
 40
0
 40
0
 40
0
 40
0
 40
1
 40
1
 40
1
 40
1
 10
1.727879
 20
4.799042
 30
0.0
 10
1.729398
 20
4.801068
 30
0.0
 10
1.731170
 20
4.802081
 30
0.0
 10
1.733195
 20
4.802081
 30
0.0
  0
LWPOLYLINE
  5
137
100
AcDbEntity
  8
Layer_1
 62
7
100
AcDbPolyline
 90
2
 70
0
 10
1.688002
 20
4.324322
 30
0.0
 10
1.794719
 20
4.751569
 30
0.0
  0
SPLINE
  5
138
100
AcDbEntity
  8
Layer_1
 62
7
100
AcDbSpline
 70
8
 71
3
 72
8
 73
4
 74
0
 40
0
 40
0
 40
0
 40
0
 40
1
 40
1
 40
1
 40
1
 10
2.154746
 20
4.802081
 30
0.0
 10
2.160063
 20
4.802081
 30
0.0
 10
2.162721
 20
4.798663
 30
0.0
 10
2.162721
 20
4.791827
 30
0.0
  0
LWPOLYLINE
  5
139
100
AcDbEntity
  8
Layer_1
 62
7
100
AcDbPolyline
 90
2
 70
0
 10
1.733195
 20
4.802081
 30
0.0
 10
2.154746
 20
4.802081
 30
0.0
  0
SPLINE
  5
13a
100
AcDbEntity
  8
Layer_1
 62
7
100
AcDbSpline
 70
8
 71
3
 72
8
 73
4
 74
0
 40
0
 40
0
 40
0
 40
0
 40
1
 40
1
 40
1
 40
1
 10
2.144112
 20
4.630803
 30
0.0
 10
2.144112
 20
4.629538
 30
0.0
 10
2.143099
 20
4.628019
 30
0.0
 10
2.141074
 20
4.626245
 30
0.0
  0
SPLINE
  5
13b
100
AcDbEntity
  8
Layer_1
 62
7
100
AcDbSpline
 70
8
 71
3
 72
8
 73
4
 74
0
 40
0
 40
0
 40
0
 40
0
 40
1
 40
1
 40
1
 40
1
 10
2.141074
 20
4.626245
 30
0.0
 10
2.139302
 20
4.624726
 30
0.0
 10
2.137656
 20
4.623966
 30
0.0
 10
2.136137
 20
4.623966
 30
0.0
  0
LWPOLYLINE
  5
13c
100
AcDbEntity
  8
Layer_1
 62
7
100
AcDbPolyline
 90
2
 70
0
 10
2.162721
 20
4.791827
 30
0.0
 10
2.144112
 20
4.630803
 30
0.0
  0
SPLINE
  5
13d
100
AcDbEntity
  8
Layer_1
 62
7
100
AcDbSpline
 70
8
 71
3
 72
8
 73
4
 74
0
 40
0
 40
0
 40
0
 40
0
 40
1
 40
1
 40
1
 40
1
 10
2.129301
 20
4.623966
 30
0.0
 10
2.123984
 20
4.623966
 30
0.0
 10
2.121326
 20
4.627257
 30
0.0
 10
2.121326
 20
4.633840
 30
0.0
  0
SPLINE
  5
13e
100
AcDbEntity
  8
Layer_1
 62
7
100
AcDbSpline
 70
8
 71
3
 72
8
 73
4
 74
0
 40
0
 40
0
 40
0
 40
0
 40
1
 40
1
 40
1
 40
1
 10
2.121326
 20
4.633840
 30
0.0
 10
2.124364
 20
4.659159
 30
0.0
 10
2.125883
 20
4.677894
 30
0.0
 10
2.125883
 20
4.690047
 30
0.0
  0
SPLINE
  5
13f
100
AcDbEntity
  8
Layer_1
 62
7
100
AcDbSpline
 70
8
 71
3
 72
8
 73
4
 74
0
 40
0
 40
0
 40
0
 40
0
 40
1
 40
1
 40
1
 40
1
 10
2.125883
 20
4.690047
 30
0.0
 10
2.125883
 20
4.710808
 30
0.0
 10
2.122338
 20
4.726885
 30
0.0
 10
2.115249
 20
4.738278
 30
0.0
  0
SPLINE
  5
140
100
AcDbEntity
  8
Layer_1
 62
7
100
AcDbSpline
 70
8
 71
3
 72
8
 73
4
 74
0
 40
0
 40
0
 40
0
 40
0
 40
1
 40
1
 40
1
 40
1
 10
2.115249
 20
4.738278
 30
0.0
 10
2.108160
 20
4.749925
 30
0.0
 10
2.098666
 20
4.758280
 30
0.0
 10
2.086766
 20
4.763343
 30
0.0
  0
SPLINE
  5
141
100
AcDbEntity
  8
Layer_1
 62
7
100
AcDbSpline
 70
8
 71
3
 72
8
 73
4
 74
0
 40
0
 40
0
 40
0
 40
0
 40
1
 40
1
 40
1
 40
1
 10
2.086766
 20
4.763343
 30
0.0
 10
2.075120
 20
4.768407
 30
0.0
 10
2.062081
 20
4.771572
 30
0.0
 10
2.047649
 20
4.772838
 30
0.0
  0
SPLINE
  5
142
100
AcDbEntity
  8
Layer_1
 62
7
100
AcDbSpline
 70
8
 71
3
 72
8
 73
4
 74
0
 40
0
 40
0
 40
0
 40
0
 40
1
 40
1
 40
1
 40
1
 10
2.047649
 20
4.772838
 30
0.0
 10
2.033471
 20
4.774103
 30
0.0
 10
2.014735
 20
4.774735
 30
0.0
 10
1.991443
 20
4.774735
 30
0.0
  0
LWPOLYLINE
  5
143
100
AcDbEntity
  8
Layer_1
 62
7
100
AcDbPolyline
 90
2
 70
0
 10
2.136137
 20
4.623966
 30
0.0
 10
2.129301
 20
4.623966
 30
0.0
  0
SPLINE
  5
144
100
AcDbEntity
  8
Layer_1
 62
7
100
AcDbSpline
 70
8
 71
3
 72
8
 73
4
 74
0
 40
0
 40
0
 40
0
 40
0
 40
1
 40
1
 40
1
 40
1
 10
1.902955
 20
4.774735
 30
0.0
 10
1.888777
 20
4.774735
 30
0.0
 10
1.879409
 20
4.773469
 30
0.0
 10
1.874852
 20
4.770936
 30
0.0
  0
SPLINE
  5
145
100
AcDbEntity
  8
Layer_1
 62
7
100
AcDbSpline
 70
8
 71
3
 72
8
 73
4
 74
0
 40
0
 40
0
 40
0
 40
0
 40
1
 40
1
 40
1
 40
1
 10
1.874852
 20
4.770936
 30
0.0
 10
1.870294
 20
4.768658
 30
0.0
 10
1.866117
 20
4.761062
 30
0.0
 10
1.862319
 20
4.748150
 30
0.0
  0
LWPOLYLINE
  5
146
100
AcDbEntity
  8
Layer_1
 62
7
100
AcDbPolyline
 90
2
 70
0
 10
1.991443
 20
4.774735
 30
0.0
 10
1.902955
 20
4.774735
 30
0.0
  0
SPLINE
  5
147
100
AcDbEntity
  8
Layer_1
 62
7
100
AcDbSpline
 70
8
 71
3
 72
8
 73
4
 74
0
 40
0
 40
0
 40
0
 40
0
 40
1
 40
1
 40
1
 40
1
 10
1.876371
 20
4.560161
 30
0.0
 10
1.902702
 20
4.560161
 30
0.0
 10
1.922577
 20
4.561933
 30
0.0
 10
1.935995
 20
4.565478
 30
0.0
  0
SPLINE
  5
148
100
AcDbEntity
  8
Layer_1
 62
7
100
AcDbSpline
 70
8
 71
3
 72
8
 73
4
 74
0
 40
0
 40
0
 40
0
 40
0
 40
1
 40
1
 40
1
 40
1
 10
1.935995
 20
4.565478
 30
0.0
 10
1.949414
 20
4.569276
 30
0.0
 10
1.960048
 20
4.576998
 30
0.0
 10
1.967897
 20
4.588644
 30
0.0
  0
SPLINE
  5
149
100
AcDbEntity
  8
Layer_1
 62
7
100
AcDbSpline
 70
8
 71
3
 72
8
 73
4
 74
0
 40
0
 40
0
 40
0
 40
0
 40
1
 40
1
 40
1
 40
1
 10
1.967897
 20
4.588644
 30
0.0
 10
1.975745
 20
4.600291
 30
0.0
 10
1.982834
 20
4.618773
 30
0.0
 10
1.989164
 20
4.644091
 30
0.0
  0
SPLINE
  5
14a
100
AcDbEntity
  8
Layer_1
 62
7
100
AcDbSpline
 70
8
 71
3
 72
8
 73
4
 74
0
 40
0
 40
0
 40
0
 40
0
 40
1
 40
1
 40
1
 40
1
 10
1.989164
 20
4.644091
 30
0.0
 10
1.989670
 20
4.645863
 30
0.0
 10
1.990556
 20
4.647382
 30
0.0
 10
1.991822
 20
4.648648
 30
0.0
  0
SPLINE
  5
14b
100
AcDbEntity
  8
Layer_1
 62
7
100
AcDbSpline
 70
8
 71
3
 72
8
 73
4
 74
0
 40
0
 40
0
 40
0
 40
0
 40
1
 40
1
 40
1
 40
1
 10
1.991822
 20
4.648648
 30
0.0
 10
1.993341
 20
4.650168
 30
0.0
 10
1.994987
 20
4.650928
 30
0.0
 10
1.996759
 20
4.650928
 30
0.0
  0
LWPOLYLINE
  5
14c
100
AcDbEntity
  8
Layer_1
 62
7
100
AcDbPolyline
 90
3
 70
0
 10
1.862319
 20
4.748150
 30
0.0
 10
1.815607
 20
4.560161
 30
0.0
 10
1.876371
 20
4.560161
 30
0.0
  0
SPLINE
  5
14d
100
AcDbEntity
  8
Layer_1
 62
7
100
AcDbSpline
 70
8
 71
3
 72
8
 73
4
 74
0
 40
0
 40
0
 40
0
 40
0
 40
1
 40
1
 40
1
 40
1
 10
2.003975
 20
4.650928
 30
0.0
 10
2.009039
 20
4.650928
 30
0.0
 10
2.011571
 20
4.647637
 30
0.0
 10
2.011571
 20
4.641054
 30
0.0
  0
LWPOLYLINE
  5
14e
100
AcDbEntity
  8
Layer_1
 62
7
100
AcDbPolyline
 90
2
 70
0
 10
1.996759
 20
4.650928
 30
0.0
 10
2.003975
 20
4.650928
 30
0.0
  0
SPLINE
  5
14f
100
AcDbEntity
  8
Layer_1
 62
7
100
AcDbSpline
 70
8
 71
3
 72
8
 73
4
 74
0
 40
0
 40
0
 40
0
 40
0
 40
1
 40
1
 40
1
 40
1
 10
1.963339
 20
4.448887
 30
0.0
 10
1.962326
 20
4.444330
 30
0.0
 10
1.959795
 20
4.442052
 30
0.0
 10
1.955744
 20
4.442052
 30
0.0
  0
LWPOLYLINE
  5
150
100
AcDbEntity
  8
Layer_1
 62
7
100
AcDbPolyline
 90
2
 70
0
 10
2.011571
 20
4.641054
 30
0.0
 10
1.963339
 20
4.448887
 30
0.0
  0
SPLINE
  5
151
100
AcDbEntity
  8
Layer_1
 62
7
100
AcDbSpline
 70
8
 71
3
 72
8
 73
4
 74
0
 40
0
 40
0
 40
0
 40
0
 40
1
 40
1
 40
1
 40
1
 10
1.948528
 20
4.442052
 30
0.0
 10
1.943464
 20
4.442052
 30
0.0
 10
1.940932
 20
4.445343
 30
0.0
 10
1.940932
 20
4.451926
 30
0.0
  0
SPLINE
  5
152
100
AcDbEntity
  8
Layer_1
 62
7
100
AcDbSpline
 70
8
 71
3
 72
8
 73
4
 74
0
 40
0
 40
0
 40
0
 40
0
 40
1
 40
1
 40
1
 40
1
 10
1.940932
 20
4.451926
 30
0.0
 10
1.945996
 20
4.472687
 30
0.0
 10
1.948528
 20
4.488004
 30
0.0
 10
1.948528
 20
4.497879
 30
0.0
  0
SPLINE
  5
153
100
AcDbEntity
  8
Layer_1
 62
7
100
AcDbSpline
 70
8
 71
3
 72
8
 73
4
 74
0
 40
0
 40
0
 40
0
 40
0
 40
1
 40
1
 40
1
 40
1
 10
1.948528
 20
4.497879
 30
0.0
 10
1.948528
 20
4.513070
 30
0.0
 10
1.941692
 20
4.522690
 30
0.0
 10
1.928020
 20
4.526741
 30
0.0
  0
SPLINE
  5
154
100
AcDbEntity
  8
Layer_1
 62
7
100
AcDbSpline
 70
8
 71
3
 72
8
 73
4
 74
0
 40
0
 40
0
 40
0
 40
0
 40
1
 40
1
 40
1
 40
1
 10
1.928020
 20
4.526741
 30
0.0
 10
1.914348
 20
4.530792
 30
0.0
 10
1.896119
 20
4.532818
 30
0.0
 10
1.873332
 20
4.532818
 30
0.0
  0
LWPOLYLINE
  5
155
100
AcDbEntity
  8
Layer_1
 62
7
100
AcDbPolyline
 90
2
 70
0
 10
1.955744
 20
4.442052
 30
0.0
 10
1.948528
 20
4.442052
 30
0.0
  0
SPLINE
  5
156
100
AcDbEntity
  8
Layer_1
 62
7
100
AcDbSpline
 70
8
 71
3
 72
8
 73
4
 74
0
 40
0
 40
0
 40
0
 40
0
 40
1
 40
1
 40
1
 40
1
 10
1.755982
 20
4.321283
 30
0.0
 10
1.753703
 20
4.314953
 30
0.0
 10
1.752564
 20
4.309257
 30
0.0
 10
1.752564
 20
4.304193
 30
0.0
  0
SPLINE
  5
157
100
AcDbEntity
  8
Layer_1
 62
7
100
AcDbSpline
 70
8
 71
3
 72
8
 73
4
 74
0
 40
0
 40
0
 40
0
 40
0
 40
1
 40
1
 40
1
 40
1
 10
1.752564
 20
4.304193
 30
0.0
 10
1.752564
 20
4.300142
 30
0.0
 10
1.761425
 20
4.298117
 30
0.0
 10
1.779148
 20
4.298117
 30
0.0
  0
LWPOLYLINE
  5
158
100
AcDbEntity
  8
Layer_1
 62
7
100
AcDbPolyline
 90
3
 70
0
 10
1.873332
 20
4.532818
 30
0.0
 10
1.808771
 20
4.532818
 30
0.0
 10
1.755982
 20
4.321283
 30
0.0
  0
SPLINE
  5
159
100
AcDbEntity
  8
Layer_1
 62
7
100
AcDbSpline
 70
8
 71
3
 72
8
 73
4
 74
0
 40
0
 40
0
 40
0
 40
0
 40
1
 40
1
 40
1
 40
1
 10
1.873332
 20
4.298117
 30
0.0
 10
1.910803
 20
4.298117
 30
0.0
 10
1.941185
 20
4.301028
 30
0.0
 10
1.964478
 20
4.306852
 30
0.0
  0
SPLINE
  5
15a
100
AcDbEntity
  8
Layer_1
 62
7
100
AcDbSpline
 70
8
 71
3
 72
8
 73
4
 74
0
 40
0
 40
0
 40
0
 40
0
 40
1
 40
1
 40
1
 40
1
 10
1.964478
 20
4.306852
 30
0.0
 10
1.987771
 20
4.312675
 30
0.0
 10
2.007013
 20
4.321916
 30
0.0
 10
2.022204
 20
4.334575
 30
0.0
  0
SPLINE
  5
15b
100
AcDbEntity
  8
Layer_1
 62
7
100
AcDbSpline
 70
8
 71
3
 72
8
 73
4
 74
0
 40
0
 40
0
 40
0
 40
0
 40
1
 40
1
 40
1
 40
1
 10
2.022204
 20
4.334575
 30
0.0
 10
2.037648
 20
4.347488
 30
0.0
 10
2.050940
 20
4.363818
 30
0.0
 10
2.062080
 20
4.383566
 30
0.0
  0
SPLINE
  5
15c
100
AcDbEntity
  8
Layer_1
 62
7
100
AcDbSpline
 70
8
 71
3
 72
8
 73
4
 74
0
 40
0
 40
0
 40
0
 40
0
 40
1
 40
1
 40
1
 40
1
 10
2.062080
 20
4.383566
 30
0.0
 10
2.073221
 20
4.403314
 30
0.0
 10
2.086766
 20
4.432051
 30
0.0
 10
2.102716
 20
4.469775
 30
0.0
  0
SPLINE
  5
15d
100
AcDbEntity
  8
Layer_1
 62
7
100
AcDbSpline
 70
8
 71
3
 72
8
 73
4
 74
0
 40
0
 40
0
 40
0
 40
0
 40
1
 40
1
 40
1
 40
1
 10
2.102716
 20
4.469775
 30
0.0
 10
2.103729
 20
4.473067
 30
0.0
 10
2.106008
 20
4.474712
 30
0.0
 10
2.109552
 20
4.474712
 30
0.0
  0
LWPOLYLINE
  5
15e
100
AcDbEntity
  8
Layer_1
 62
7
100
AcDbPolyline
 90
2
 70
0
 10
1.779148
 20
4.298117
 30
0.0
 10
1.873332
 20
4.298117
 30
0.0
  0
SPLINE
  5
15f
100
AcDbEntity
  8
Layer_1
 62
7
100
AcDbSpline
 70
8
 71
3
 72
8
 73
4
 74
0
 40
0
 40
0
 40
0
 40
0
 40
1
 40
1
 40
1
 40
1
 10
2.116768
 20
4.474712
 30
0.0
 10
2.118794
 20
4.474712
 30
0.0
 10
2.120566
 20
4.473826
 30
0.0
 10
2.122085
 20
4.472055
 30
0.0
  0
SPLINE
  5
160
100
AcDbEntity
  8
Layer_1
 62
7
100
AcDbSpline
 70
8
 71
3
 72
8
 73
4
 74
0
 40
0
 40
0
 40
0
 40
0
 40
1
 40
1
 40
1
 40
1
 10
2.122085
 20
4.472055
 30
0.0
 10
2.123604
 20
4.470283
 30
0.0
 10
2.124364
 20
4.468258
 30
0.0
 10
2.124364
 20
4.465978
 30
0.0
  0
SPLINE
  5
161
100
AcDbEntity
  8
Layer_1
 62
7
100
AcDbSpline
 70
8
 71
3
 72
8
 73
4
 74
0
 40
0
 40
0
 40
0
 40
0
 40
1
 40
1
 40
1
 40
1
 10
2.124364
 20
4.465978
 30
0.0
 10
2.124364
 20
4.464965
 30
0.0
 10
2.124111
 20
4.463952
 30
0.0
 10
2.123604
 20
4.462939
 30
0.0
  0
LWPOLYLINE
  5
162
100
AcDbEntity
  8
Layer_1
 62
7
100
AcDbPolyline
 90
2
 70
0
 10
2.109552
 20
4.474712
 30
0.0
 10
2.116768
 20
4.474712
 30
0.0
  0
SPLINE
  5
163
100
AcDbEntity
  8
Layer_1
 62
7
100
AcDbSpline
 70
8
 71
3
 72
8
 73
4
 74
0
 40
0
 40
0
 40
0
 40
0
 40
1
 40
1
 40
1
 40
1
 10
2.043472
 20
4.275330
 30
0.0
 10
2.042459
 20
4.272292
 30
0.0
 10
2.040434
 20
4.270773
 30
0.0
 10
2.037395
 20
4.270773
 30
0.0
  0
LWPOLYLINE
  5
164
100
AcDbEntity
  8
Layer_1
 62
7
100
AcDbPolyline
 90
2
 70
0
 10
2.123604
 20
4.462939
 30
0.0
 10
2.043472
 20
4.275330
 30
0.0
  0
SPLINE
  5
165
100
AcDbEntity
  8
Layer_1
 62
7
100
AcDbSpline
 70
8
 71
3
 72
8
 73
4
 74
0
 40
0
 40
0
 40
0
 40
0
 40
1
 40
1
 40
1
 40
1
 10
2.190065
 20
4.253682
 30
0.0
 10
2.188546
 20
4.253682
 30
0.0
 10
2.187153
 20
4.254568
 30
0.0
 10
2.185888
 20
4.256340
 30
0.0
  0
SPLINE
  5
166
100
AcDbEntity
  8
Layer_1
 62
7
100
AcDbSpline
 70
8
 71
3
 72
8
 73
4
 74
0
 40
0
 40
0
 40
0
 40
0
 40
1
 40
1
 40
1
 40
1
 10
2.185888
 20
4.256340
 30
0.0
 10
2.184622
 20
4.258111
 30
0.0
 10
2.183989
 20
4.259757
 30
0.0
 10
2.183989
 20
4.261277
 30
0.0
  0
LWPOLYLINE
  5
167
100
AcDbEntity
  8
Layer_1
 62
7
100
AcDbPolyline
 90
2
 70
0
 10
2.037395
 20
4.270773
 30
0.0
 10
1.604832
 20
4.270772
 30
0.0
  0
SPLINE
  5
168
100
AcDbEntity
  8
Layer_1
 62
7
100
AcDbSpline
 70
8
 71
3
 72
8
 73
4
 74
0
 40
0
 40
0
 40
0
 40
0
 40
1
 40
1
 40
1
 40
1
 10
2.228802
 20
4.442809
 30
0.0
 10
2.229815
 20
4.445848
 30
0.0
 10
2.231967
 20
4.447367
 30
0.0
 10
2.235259
 20
4.447367
 30
0.0
  0
LWPOLYLINE
  5
169
100
AcDbEntity
  8
Layer_1
 62
7
100
AcDbPolyline
 90
2
 70
0
 10
2.183989
 20
4.261277
 30
0.0
 10
2.228802
 20
4.442809
 30
0.0
  0
SPLINE
  5
16a
100
AcDbEntity
  8
Layer_1
 62
7
100
AcDbSpline
 70
8
 71
3
 72
8
 73
4
 74
0
 40
0
 40
0
 40
0
 40
0
 40
1
 40
1
 40
1
 40
1
 10
2.244373
 20
4.447367
 30
0.0
 10
2.246399
 20
4.447367
 30
0.0
 10
2.247918
 20
4.446607
 30
0.0
 10
2.248930
 20
4.445087
 30
0.0
  0
SPLINE
  5
16b
100
AcDbEntity
  8
Layer_1
 62
7
100
AcDbSpline
 70
8
 71
3
 72
8
 73
4
 74
0
 40
0
 40
0
 40
0
 40
0
 40
1
 40
1
 40
1
 40
1
 10
2.248930
 20
4.445087
 30
0.0
 10
2.250196
 20
4.443567
 30
0.0
 10
2.250829
 20
4.441670
 30
0.0
 10
2.250829
 20
4.439391
 30
0.0
  0
SPLINE
  5
16c
100
AcDbEntity
  8
Layer_1
 62
7
100
AcDbSpline
 70
8
 71
3
 72
8
 73
4
 74
0
 40
0
 40
0
 40
0
 40
0
 40
1
 40
1
 40
1
 40
1
 10
2.250829
 20
4.439391
 30
0.0
 10
2.246525
 20
4.421668
 30
0.0
 10
2.244373
 20
4.405844
 30
0.0
 10
2.244373
 20
4.391919
 30
0.0
  0
SPLINE
  5
16d
100
AcDbEntity
  8
Layer_1
 62
7
100
AcDbSpline
 70
8
 71
3
 72
8
 73
4
 74
0
 40
0
 40
0
 40
0
 40
0
 40
1
 40
1
 40
1
 40
1
 10
2.244373
 20
4.391919
 30
0.0
 10
2.244373
 20
4.354447
 30
0.0
 10
2.257285
 20
4.326597
 30
0.0
 10
2.283110
 20
4.308368
 30
0.0
  0
SPLINE
  5
16e
100
AcDbEntity
  8
Layer_1
 62
7
100
AcDbSpline
 70
8
 71
3
 72
8
 73
4
 74
0
 40
0
 40
0
 40
0
 40
0
 40
1
 40
1
 40
1
 40
1
 10
2.283110
 20
4.308368
 30
0.0
 10
2.308935
 20
4.290139
 30
0.0
 10
2.341469
 20
4.281024
 30
0.0
 10
2.380712
 20
4.281024
 30
0.0
  0
SPLINE
  5
16f
100
AcDbEntity
  8
Layer_1
 62
7
100
AcDbSpline
 70
8
 71
3
 72
8
 73
4
 74
0
 40
0
 40
0
 40
0
 40
0
 40
1
 40
1
 40
1
 40
1
 10
2.380712
 20
4.281024
 30
0.0
 10
2.397676
 20
4.281024
 30
0.0
 10
2.414386
 20
4.285202
 30
0.0
 10
2.430843
 20
4.293557
 30
0.0
  0
SPLINE
  5
170
100
AcDbEntity
  8
Layer_1
 62
7
100
AcDbSpline
 70
8
 71
3
 72
8
 73
4
 74
0
 40
0
 40
0
 40
0
 40
0
 40
1
 40
1
 40
1
 40
1
 10
2.430843
 20
4.293557
 30
0.0
 10
2.447300
 20
4.301912
 30
0.0
 10
2.461604
 20
4.312799
 30
0.0
 10
2.473757
 20
4.326217
 30
0.0
  0
SPLINE
  5
171
100
AcDbEntity
  8
Layer_1
 62
7
100
AcDbSpline
 70
8
 71
3
 72
8
 73
4
 74
0
 40
0
 40
0
 40
0
 40
0
 40
1
 40
1
 40
1
 40
1
 10
2.473757
 20
4.326217
 30
0.0
 10
2.486163
 20
4.339636
 30
0.0
 10
2.496037
 20
4.354574
 30
0.0
 10
2.503380
 20
4.371031
 30
0.0
  0
SPLINE
  5
172
100
AcDbEntity
  8
Layer_1
 62
7
100
AcDbSpline
 70
8
 71
3
 72
8
 73
4
 74
0
 40
0
 40
0
 40
0
 40
0
 40
1
 40
1
 40
1
 40
1
 10
2.503380
 20
4.371031
 30
0.0
 10
2.510722
 20
4.387741
 30
0.0
 10
2.514393
 20
4.404578
 30
0.0
 10
2.514393
 20
4.421541
 30
0.0
  0
SPLINE
  5
173
100
AcDbEntity
  8
Layer_1
 62
7
100
AcDbSpline
 70
8
 71
3
 72
8
 73
4
 74
0
 40
0
 40
0
 40
0
 40
0
 40
1
 40
1
 40
1
 40
1
 10
2.514393
 20
4.421541
 30
0.0
 10
2.514393
 20
4.439770
 30
0.0
 10
2.509583
 20
4.455974
 30
0.0
 10
2.499962
 20
4.470152
 30
0.0
  0
SPLINE
  5
174
100
AcDbEntity
  8
Layer_1
 62
7
100
AcDbSpline
 70
8
 71
3
 72
8
 73
4
 74
0
 40
0
 40
0
 40
0
 40
0
 40
1
 40
1
 40
1
 40
1
 10
2.499962
 20
4.470152
 30
0.0
 10
2.490341
 20
4.484584
 30
0.0
 10
2.477049
 20
4.493825
 30
0.0
 10
2.460085
 20
4.497876
 30
0.0
  0
LWPOLYLINE
  5
175
100
AcDbEntity
  8
Layer_1
 62
7
100
AcDbPolyline
 90
2
 70
0
 10
2.235259
 20
4.447367
 30
0.0
 10
2.244373
 20
4.447367
 30
0.0
  0
SPLINE
  5
176
100
AcDbEntity
  8
Layer_1
 62
7
100
AcDbSpline
 70
8
 71
3
 72
8
 73
4
 74
0
 40
0
 40
0
 40
0
 40
0
 40
1
 40
1
 40
1
 40
1
 10
2.365142
 20
4.522941
 30
0.0
 10
2.339570
 20
4.529777
 30
0.0
 10
2.319189
 20
4.543449
 30
0.0
 10
2.303998
 20
4.563957
 30
0.0
  0
SPLINE
  5
177
100
AcDbEntity
  8
Layer_1
 62
7
100
AcDbSpline
 70
8
 71
3
 72
8
 73
4
 74
0
 40
0
 40
0
 40
0
 40
0
 40
1
 40
1
 40
1
 40
1
 10
2.303998
 20
4.563957
 30
0.0
 10
2.288807
 20
4.584718
 30
0.0
 10
2.281211
 20
4.608011
 30
0.0
 10
2.281211
 20
4.633835
 30
0.0
  0
SPLINE
  5
178
100
AcDbEntity
  8
Layer_1
 62
7
100
AcDbSpline
 70
8
 71
3
 72
8
 73
4
 74
0
 40
0
 40
0
 40
0
 40
0
 40
1
 40
1
 40
1
 40
1
 10
2.281211
 20
4.633835
 30
0.0
 10
2.281211
 20
4.664977
 30
0.0
 10
2.290452
 20
4.694979
 30
0.0
 10
2.308935
 20
4.723842
 30
0.0
  0
SPLINE
  5
179
100
AcDbEntity
  8
Layer_1
 62
7
100
AcDbSpline
 70
8
 71
3
 72
8
 73
4
 74
0
 40
0
 40
0
 40
0
 40
0
 40
1
 40
1
 40
1
 40
1
 10
2.308935
 20
4.723842
 30
0.0
 10
2.327417
 20
4.752705
 30
0.0
 10
2.351470
 20
4.775745
 30
0.0
 10
2.381092
 20
4.792961
 30
0.0
  0
SPLINE
  5
17a
100
AcDbEntity
  8
Layer_1
 62
7
100
AcDbSpline
 70
8
 71
3
 72
8
 73
4
 74
0
 40
0
 40
0
 40
0
 40
0
 40
1
 40
1
 40
1
 40
1
 10
2.381092
 20
4.792961
 30
0.0
 10
2.410968
 20
4.810431
 30
0.0
 10
2.441350
 20
4.819166
 30
0.0
 10
2.472238
 20
4.819166
 30
0.0
  0
SPLINE
  5
17b
100
AcDbEntity
  8
Layer_1
 62
7
100
AcDbSpline
 70
8
 71
3
 72
8
 73
4
 74
0
 40
0
 40
0
 40
0
 40
0
 40
1
 40
1
 40
1
 40
1
 10
2.472238
 20
4.819166
 30
0.0
 10
2.496037
 20
4.819166
 30
0.0
 10
2.517811
 20
4.814735
 30
0.0
 10
2.537559
 20
4.805874
 30
0.0
  0
SPLINE
  5
17c
100
AcDbEntity
  8
Layer_1
 62
7
100
AcDbSpline
 70
8
 71
3
 72
8
 73
4
 74
0
 40
0
 40
0
 40
0
 40
0
 40
1
 40
1
 40
1
 40
1
 10
2.537559
 20
4.805874
 30
0.0
 10
2.557561
 20
4.797265
 30
0.0
 10
2.572879
 20
4.783467
 30
0.0
 10
2.583512
 20
4.764478
 30
0.0
  0
LWPOLYLINE
  5
17d
100
AcDbEntity
  8
Layer_1
 62
7
100
AcDbPolyline
 90
2
 70
0
 10
2.460085
 20
4.497876
 30
0.0
 10
2.365142
 20
4.522941
 30
0.0
  0
SPLINE
  5
17e
100
AcDbEntity
  8
Layer_1
 62
7
100
AcDbSpline
 70
8
 71
3
 72
8
 73
4
 74
0
 40
0
 40
0
 40
0
 40
0
 40
1
 40
1
 40
1
 40
1
 10
2.627946
 20
4.816887
 30
0.0
 10
2.630984
 20
4.818407
 30
0.0
 10
2.632756
 20
4.819167
 30
0.0
 10
2.633263
 20
4.819167
 30
0.0
  0
LWPOLYLINE
  5
17f
100
AcDbEntity
  8
Layer_1
 62
7
100
AcDbPolyline
 90
2
 70
0
 10
2.583512
 20
4.764478
 30
0.0
 10
2.627946
 20
4.816887
 30
0.0
  0
SPLINE
  5
180
100
AcDbEntity
  8
Layer_1
 62
7
100
AcDbSpline
 70
8
 71
3
 72
8
 73
4
 74
0
 40
0
 40
0
 40
0
 40
0
 40
1
 40
1
 40
1
 40
1
 10
2.638200
 20
4.819167
 30
0.0
 10
2.640225
 20
4.819167
 30
0.0
 10
2.641871
 20
4.818281
 30
0.0
 10
2.643137
 20
4.816509
 30
0.0
  0
SPLINE
  5
181
100
AcDbEntity
  8
Layer_1
 62
7
100
AcDbSpline
 70
8
 71
3
 72
8
 73
4
 74
0
 40
0
 40
0
 40
0
 40
0
 40
1
 40
1
 40
1
 40
1
 10
2.643137
 20
4.816509
 30
0.0
 10
2.644403
 20
4.814737
 30
0.0
 10
2.645036
 20
4.812966
 30
0.0
 10
2.645036
 20
4.811192
 30
0.0
  0
LWPOLYLINE
  5
182
100
AcDbEntity
  8
Layer_1
 62
7
100
AcDbPolyline
 90
2
 70
0
 10
2.633263
 20
4.819167
 30
0.0
 10
2.638200
 20
4.819167
 30
0.0
  0
SPLINE
  5
183
100
AcDbEntity
  8
Layer_1
 62
7
100
AcDbSpline
 70
8
 71
3
 72
8
 73
4
 74
0
 40
0
 40
0
 40
0
 40
0
 40
1
 40
1
 40
1
 40
1
 10
2.599843
 20
4.630799
 30
0.0
 10
2.599083
 20
4.627256
 30
0.0
 10
2.597057
 20
4.625482
 30
0.0
 10
2.593766
 20
4.625482
 30
0.0
  0
LWPOLYLINE
  5
184
100
AcDbEntity
  8
Layer_1
 62
7
100
AcDbPolyline
 90
2
 70
0
 10
2.645036
 20
4.811192
 30
0.0
 10
2.599843
 20
4.630799
 30
0.0
  0
SPLINE
  5
185
100
AcDbEntity
  8
Layer_1
 62
7
100
AcDbSpline
 70
8
 71
3
 72
8
 73
4
 74
0
 40
0
 40
0
 40
0
 40
0
 40
1
 40
1
 40
1
 40
1
 10
2.584272
 20
4.625482
 30
0.0
 10
2.579714
 20
4.625482
 30
0.0
 10
2.577436
 20
4.628266
 30
0.0
 10
2.577436
 20
4.633837
 30
0.0
  0
SPLINE
  5
186
100
AcDbEntity
  8
Layer_1
 62
7
100
AcDbSpline
 70
8
 71
3
 72
8
 73
4
 74
0
 40
0
 40
0
 40
0
 40
0
 40
1
 40
1
 40
1
 40
1
 10
2.577436
 20
4.633837
 30
0.0
 10
2.579968
 20
4.650294
 30
0.0
 10
2.581233
 20
4.664599
 30
0.0
 10
2.581233
 20
4.676752
 30
0.0
  0
SPLINE
  5
187
100
AcDbEntity
  8
Layer_1
 62
7
100
AcDbSpline
 70
8
 71
3
 72
8
 73
4
 74
0
 40
0
 40
0
 40
0
 40
0
 40
1
 40
1
 40
1
 40
1
 10
2.581233
 20
4.676752
 30
0.0
 10
2.581233
 20
4.700804
 30
0.0
 10
2.577056
 20
4.721692
 30
0.0
 10
2.568701
 20
4.739415
 30
0.0
  0
SPLINE
  5
188
100
AcDbEntity
  8
Layer_1
 62
7
100
AcDbSpline
 70
8
 71
3
 72
8
 73
4
 74
0
 40
0
 40
0
 40
0
 40
0
 40
1
 40
1
 40
1
 40
1
 10
2.568701
 20
4.739415
 30
0.0
 10
2.560599
 20
4.757391
 30
0.0
 10
2.548193
 20
4.770936
 30
0.0
 10
2.531483
 20
4.780051
 30
0.0
  0
SPLINE
  5
189
100
AcDbEntity
  8
Layer_1
 62
7
100
AcDbSpline
 70
8
 71
3
 72
8
 73
4
 74
0
 40
0
 40
0
 40
0
 40
0
 40
1
 40
1
 40
1
 40
1
 10
2.531483
 20
4.780051
 30
0.0
 10
2.515026
 20
4.789419
 30
0.0
 10
2.494518
 20
4.794102
 30
0.0
 10
2.469959
 20
4.794102
 30
0.0
  0
SPLINE
  5
18a
100
AcDbEntity
  8
Layer_1
 62
7
100
AcDbSpline
 70
8
 71
3
 72
8
 73
4
 74
0
 40
0
 40
0
 40
0
 40
0
 40
1
 40
1
 40
1
 40
1
 10
2.469959
 20
4.794102
 30
0.0
 10
2.449198
 20
4.794102
 30
0.0
 10
2.428564
 20
4.788153
 30
0.0
 10
2.408056
 20
4.776253
 30
0.0
  0
SPLINE
  5
18b
100
AcDbEntity
  8
Layer_1
 62
7
100
AcDbSpline
 70
8
 71
3
 72
8
 73
4
 74
0
 40
0
 40
0
 40
0
 40
0
 40
1
 40
1
 40
1
 40
1
 10
2.408056
 20
4.776253
 30
0.0
 10
2.387548
 20
4.764354
 30
0.0
 10
2.370965
 20
4.748530
 30
0.0
 10
2.358305
 20
4.728781
 30
0.0
  0
SPLINE
  5
18c
100
AcDbEntity
  8
Layer_1
 62
7
100
AcDbSpline
 70
8
 71
3
 72
8
 73
4
 74
0
 40
0
 40
0
 40
0
 40
0
 40
1
 40
1
 40
1
 40
1
 10
2.358305
 20
4.728781
 30
0.0
 10
2.346521
 20
4.710397
 30
0.0
 10
2.340222
 20
4.691356
 30
0.0
 10
2.339407
 20
4.671655
 30
0.0
  0
SPLINE
  5
18d
100
AcDbEntity
  8
Layer_1
 62
7
100
AcDbSpline
 70
8
 71
3
 72
8
 73
4
 74
0
 40
0
 40
0
 40
0
 40
0
 40
1
 40
1
 40
1
 40
1
 10
2.339407
 20
4.671655
 30
0.0
 10
2.339348
 20
4.670194
 30
0.0
 10
2.339317
 20
4.668726
 30
0.0
 10
2.339317
 20
4.667257
 30
0.0
  0
SPLINE
  5
18e
100
AcDbEntity
  8
Layer_1
 62
7
100
AcDbSpline
 70
8
 71
3
 72
8
 73
4
 74
0
 40
0
 40
0
 40
0
 40
0
 40
1
 40
1
 40
1
 40
1
 10
2.339317
 20
4.667257
 30
0.0
 10
2.339317
 20
4.650548
 30
0.0
 10
2.344127
 20
4.635736
 30
0.0
 10
2.353748
 20
4.622824
 30
0.0
  0
SPLINE
  5
18f
100
AcDbEntity
  8
Layer_1
 62
7
100
AcDbSpline
 70
8
 71
3
 72
8
 73
4
 74
0
 40
0
 40
0
 40
0
 40
0
 40
1
 40
1
 40
1
 40
1
 10
2.353748
 20
4.622824
 30
0.0
 10
2.363622
 20
4.609911
 30
0.0
 10
2.376661
 20
4.601176
 30
0.0
 10
2.392865
 20
4.596619
 30
0.0
  0
LWPOLYLINE
  5
190
100
AcDbEntity
  8
Layer_1
 62
7
100
AcDbPolyline
 90
2
 70
0
 10
2.593766
 20
4.625482
 30
0.0
 10
2.584272
 20
4.625482
 30
0.0
  0
SPLINE
  5
191
100
AcDbEntity
  8
Layer_1
 62
7
100
AcDbSpline
 70
8
 71
3
 72
8
 73
4
 74
0
 40
0
 40
0
 40
0
 40
0
 40
1
 40
1
 40
1
 40
1
 10
2.487809
 20
4.571934
 30
0.0
 10
2.505025
 20
4.567377
 30
0.0
 10
2.519963
 20
4.559275
 30
0.0
 10
2.532622
 20
4.547628
 30
0.0
  0
SPLINE
  5
192
100
AcDbEntity
  8
Layer_1
 62
7
100
AcDbSpline
 70
8
 71
3
 72
8
 73
4
 74
0
 40
0
 40
0
 40
0
 40
0
 40
1
 40
1
 40
1
 40
1
 10
2.532622
 20
4.547628
 30
0.0
 10
2.545535
 20
4.536235
 30
0.0
 10
2.555282
 20
4.522563
 30
0.0
 10
2.561865
 20
4.506613
 30
0.0
  0
SPLINE
  5
193
100
AcDbEntity
  8
Layer_1
 62
7
100
AcDbSpline
 70
8
 71
3
 72
8
 73
4
 74
0
 40
0
 40
0
 40
0
 40
0
 40
1
 40
1
 40
1
 40
1
 10
2.561865
 20
4.506613
 30
0.0
 10
2.568448
 20
4.490915
 30
0.0
 10
2.571739
 20
4.473699
 30
0.0
 10
2.571739
 20
4.454963
 30
0.0
  0
SPLINE
  5
194
100
AcDbEntity
  8
Layer_1
 62
7
100
AcDbSpline
 70
8
 71
3
 72
8
 73
4
 74
0
 40
0
 40
0
 40
0
 40
0
 40
1
 40
1
 40
1
 40
1
 10
2.571739
 20
4.454963
 30
0.0
 10
2.571739
 20
4.430405
 30
0.0
 10
2.566549
 20
4.406099
 30
0.0
 10
2.556168
 20
4.382046
 30
0.0
  0
SPLINE
  5
195
100
AcDbEntity
  8
Layer_1
 62
7
100
AcDbSpline
 70
8
 71
3
 72
8
 73
4
 74
0
 40
0
 40
0
 40
0
 40
0
 40
1
 40
1
 40
1
 40
1
 10
2.556168
 20
4.382046
 30
0.0
 10
2.545788
 20
4.358247
 30
0.0
 10
2.531230
 20
4.336474
 30
0.0
 10
2.512494
 20
4.316725
 30
0.0
  0
SPLINE
  5
196
100
AcDbEntity
  8
Layer_1
 62
7
100
AcDbSpline
 70
8
 71
3
 72
8
 73
4
 74
0
 40
0
 40
0
 40
0
 40
0
 40
1
 40
1
 40
1
 40
1
 10
2.512494
 20
4.316725
 30
0.0
 10
2.494012
 20
4.296977
 30
0.0
 10
2.472998
 20
4.281533
 30
0.0
 10
2.449452
 20
4.270393
 30
0.0
  0
SPLINE
  5
197
100
AcDbEntity
  8
Layer_1
 62
7
100
AcDbSpline
 70
8
 71
3
 72
8
 73
4
 74
0
 40
0
 40
0
 40
0
 40
0
 40
1
 40
1
 40
1
 40
1
 10
2.449452
 20
4.270393
 30
0.0
 10
2.425906
 20
4.259252
 30
0.0
 10
2.401853
 20
4.253682
 30
0.0
 10
2.377294
 20
4.253682
 30
0.0
  0
SPLINE
  5
198
100
AcDbEntity
  8
Layer_1
 62
7
100
AcDbSpline
 70
8
 71
3
 72
8
 73
4
 74
0
 40
0
 40
0
 40
0
 40
0
 40
1
 40
1
 40
1
 40
1
 10
2.377294
 20
4.253682
 30
0.0
 10
2.315518
 20
4.253682
 30
0.0
 10
2.271210
 20
4.271785
 30
0.0
 10
2.244373
 20
4.307990
 30
0.0
  0
LWPOLYLINE
  5
199
100
AcDbEntity
  8
Layer_1
 62
7
100
AcDbPolyline
 90
2
 70
0
 10
2.392865
 20
4.596619
 30
0.0
 10
2.487809
 20
4.571934
 30
0.0
  0
SPLINE
  5
19a
100
AcDbEntity
  8
Layer_1
 62
7
100
AcDbSpline
 70
8
 71
3
 72
8
 73
4
 74
0
 40
0
 40
0
 40
0
 40
0
 40
1
 40
1
 40
1
 40
1
 10
2.201079
 20
4.255961
 30
0.0
 10
2.198040
 20
4.254441
 30
0.0
 10
2.196142
 20
4.253681
 30
0.0
 10
2.195382
 20
4.253681
 30
0.0
  0
LWPOLYLINE
  5
19b
100
AcDbEntity
  8
Layer_1
 62
7
100
AcDbPolyline
 90
2
 70
0
 10
2.244373
 20
4.307990
 30
0.0
 10
2.201079
 20
4.255961
 30
0.0
  0
SPLINE
  5
19c
100
AcDbEntity
  8
Layer_1
 62
7
100
AcDbSpline
 70
8
 71
3
 72
8
 73
4
 74
0
 40
0
 40
0
 40
0
 40
0
 40
1
 40
1
 40
1
 40
1
 10
2.655290
 20
4.281026
 30
0.0
 10
2.655542
 20
4.282291
 30
0.0
 10
2.656048
 20
4.284570
 30
0.0
 10
2.656809
 20
4.287862
 30
0.0
  0
SPLINE
  5
19d
100
AcDbEntity
  8
Layer_1
 62
7
100
AcDbSpline
 70
8
 71
3
 72
8
 73
4
 74
0
 40
0
 40
0
 40
0
 40
0
 40
1
 40
1
 40
1
 40
1
 10
2.656809
 20
4.287862
 30
0.0
 10
2.657822
 20
4.291154
 30
0.0
 10
2.658961
 20
4.293685
 30
0.0
 10
2.660227
 20
4.295457
 30
0.0
  0
SPLINE
  5
19e
100
AcDbEntity
  8
Layer_1
 62
7
100
AcDbSpline
 70
8
 71
3
 72
8
 73
4
 74
0
 40
0
 40
0
 40
0
 40
0
 40
1
 40
1
 40
1
 40
1
 10
2.660227
 20
4.295457
 30
0.0
 10
2.661746
 20
4.297229
 30
0.0
 10
2.663771
 20
4.298115
 30
0.0
 10
2.666303
 20
4.298115
 30
0.0
  0
SPLINE
  5
19f
100
AcDbEntity
  8
Layer_1
 62
7
100
AcDbSpline
 70
8
 71
3
 72
8
 73
4
 74
0
 40
0
 40
0
 40
0
 40
0
 40
1
 40
1
 40
1
 40
1
 10
2.666303
 20
4.298115
 30
0.0
 10
2.710863
 20
4.298115
 30
0.0
 10
2.740359
 20
4.299381
 30
0.0
 10
2.754791
 20
4.301914
 30
0.0
  0
SPLINE
  5
1a0
100
AcDbEntity
  8
Layer_1
 62
7
100
AcDbSpline
 70
8
 71
3
 72
8
 73
4
 74
0
 40
0
 40
0
 40
0
 40
0
 40
1
 40
1
 40
1
 40
1
 10
2.754791
 20
4.301914
 30
0.0
 10
2.768716
 20
4.305459
 30
0.0
 10
2.777071
 20
4.312928
 30
0.0
 10
2.779856
 20
4.324321
 30
0.0
  0
LWPOLYLINE
  5
1a1
100
AcDbEntity
  8
Layer_1
 62
7
100
AcDbPolyline
 90
2
 70
0
 10
2.195382
 20
4.253681
 30
0.0
 10
2.190065
 20
4.253682
 30
0.0
  0
SPLINE
  5
1a2
100
AcDbEntity
  8
Layer_1
 62
7
100
AcDbSpline
 70
8
 71
3
 72
8
 73
4
 74
0
 40
0
 40
0
 40
0
 40
0
 40
1
 40
1
 40
1
 40
1
 10
2.886193
 20
4.751568
 30
0.0
 10
2.888472
 20
4.757898
 30
0.0
 10
2.889611
 20
4.763594
 30
0.0
 10
2.889611
 20
4.768658
 30
0.0
  0
SPLINE
  5
1a3
100
AcDbEntity
  8
Layer_1
 62
7
100
AcDbSpline
 70
8
 71
3
 72
8
 73
4
 74
0
 40
0
 40
0
 40
0
 40
0
 40
1
 40
1
 40
1
 40
1
 10
2.889611
 20
4.768658
 30
0.0
 10
2.889611
 20
4.772709
 30
0.0
 10
2.880496
 20
4.774734
 30
0.0
 10
2.862267
 20
4.774734
 30
0.0
  0
LWPOLYLINE
  5
1a4
100
AcDbEntity
  8
Layer_1
 62
7
100
AcDbPolyline
 90
2
 70
0
 10
2.779856
 20
4.324321
 30
0.0
 10
2.886193
 20
4.751568
 30
0.0
  0
SPLINE
  5
1a5
100
AcDbEntity
  8
Layer_1
 62
7
100
AcDbSpline
 70
8
 71
3
 72
8
 73
4
 74
0
 40
0
 40
0
 40
0
 40
0
 40
1
 40
1
 40
1
 40
1
 10
2.817074
 20
4.774734
 30
0.0
 10
2.782388
 20
4.774734
 30
0.0
 10
2.755550
 20
4.769417
 30
0.0
 10
2.736562
 20
4.758784
 30
0.0
  0
SPLINE
  5
1a6
100
AcDbEntity
  8
Layer_1
 62
7
100
AcDbSpline
 70
8
 71
3
 72
8
 73
4
 74
0
 40
0
 40
0
 40
0
 40
0
 40
1
 40
1
 40
1
 40
1
 10
2.736562
 20
4.758784
 30
0.0
 10
2.717826
 20
4.748150
 30
0.0
 10
2.704028
 20
4.734098
 30
0.0
 10
2.695166
 20
4.716629
 30
0.0
  0
SPLINE
  5
1a7
100
AcDbEntity
  8
Layer_1
 62
7
100
AcDbSpline
 70
8
 71
3
 72
8
 73
4
 74
0
 40
0
 40
0
 40
0
 40
0
 40
1
 40
1
 40
1
 40
1
 10
2.695166
 20
4.716629
 30
0.0
 10
2.686305
 20
4.699159
 30
0.0
 10
2.674912
 20
4.670549
 30
0.0
 10
2.660986
 20
4.630800
 30
0.0
  0
SPLINE
  5
1a8
100
AcDbEntity
  8
Layer_1
 62
7
100
AcDbSpline
 70
8
 71
3
 72
8
 73
4
 74
0
 40
0
 40
0
 40
0
 40
0
 40
1
 40
1
 40
1
 40
1
 10
2.660986
 20
4.630800
 30
0.0
 10
2.659214
 20
4.626242
 30
0.0
 10
2.656556
 20
4.623963
 30
0.0
 10
2.653011
 20
4.623963
 30
0.0
  0
LWPOLYLINE
  5
1a9
100
AcDbEntity
  8
Layer_1
 62
7
100
AcDbPolyline
 90
2
 70
0
 10
2.862267
 20
4.774734
 30
0.0
 10
2.817074
 20
4.774734
 30
0.0
  0
SPLINE
  5
1aa
100
AcDbEntity
  8
Layer_1
 62
7
100
AcDbSpline
 70
8
 71
3
 72
8
 73
4
 74
0
 40
0
 40
0
 40
0
 40
0
 40
1
 40
1
 40
1
 40
1
 10
2.646175
 20
4.623963
 30
0.0
 10
2.640858
 20
4.623963
 30
0.0
 10
2.638200
 20
4.627255
 30
0.0
 10
2.638200
 20
4.633838
 30
0.0
  0
LWPOLYLINE
  5
1ab
100
AcDbEntity
  8
Layer_1
 62
7
100
AcDbPolyline
 90
2
 70
0
 10
2.653011
 20
4.623963
 30
0.0
 10
2.646175
 20
4.623963
 30
0.0
  0
SPLINE
  5
1ac
100
AcDbEntity
  8
Layer_1
 62
7
100
AcDbSpline
 70
8
 71
3
 72
8
 73
4
 74
0
 40
0
 40
0
 40
0
 40
0
 40
1
 40
1
 40
1
 40
1
 10
2.693647
 20
4.794862
 30
0.0
 10
2.694660
 20
4.799673
 30
0.0
 10
2.697192
 20
4.802078
 30
0.0
 10
2.701243
 20
4.802078
 30
0.0
  0
LWPOLYLINE
  5
1ad
100
AcDbEntity
  8
Layer_1
 62
7
100
AcDbPolyline
 90
2
 70
0
 10
2.638200
 20
4.633838
 30
0.0
 10
2.693647
 20
4.794862
 30
0.0
  0
SPLINE
  5
1ae
100
AcDbEntity
  8
Layer_1
 62
7
100
AcDbSpline
 70
8
 71
3
 72
8
 73
4
 74
0
 40
0
 40
0
 40
0
 40
0
 40
1
 40
1
 40
1
 40
1
 10
3.160771
 20
4.802078
 30
0.0
 10
3.166087
 20
4.802078
 30
0.0
 10
3.168746
 20
4.798660
 30
0.0
 10
3.168746
 20
4.791824
 30
0.0
  0
LWPOLYLINE
  5
1af
100
AcDbEntity
  8
Layer_1
 62
7
100
AcDbPolyline
 90
2
 70
0
 10
2.701243
 20
4.802078
 30
0.0
 10
3.160771
 20
4.802078
 30
0.0
  0
SPLINE
  5
1b0
100
AcDbEntity
  8
Layer_1
 62
7
100
AcDbSpline
 70
8
 71
3
 72
8
 73
4
 74
0
 40
0
 40
0
 40
0
 40
0
 40
1
 40
1
 40
1
 40
1
 10
3.142921
 20
4.630800
 30
0.0
 10
3.142921
 20
4.629280
 30
0.0
 10
3.142035
 20
4.627761
 30
0.0
 10
3.140263
 20
4.626242
 30
0.0
  0
SPLINE
  5
1b1
100
AcDbEntity
  8
Layer_1
 62
7
100
AcDbSpline
 70
8
 71
3
 72
8
 73
4
 74
0
 40
0
 40
0
 40
0
 40
0
 40
1
 40
1
 40
1
 40
1
 10
3.140263
 20
4.626242
 30
0.0
 10
3.138491
 20
4.624722
 30
0.0
 10
3.136845
 20
4.623963
 30
0.0
 10
3.135326
 20
4.623963
 30
0.0
  0
LWPOLYLINE
  5
1b2
100
AcDbEntity
  8
Layer_1
 62
7
100
AcDbPolyline
 90
2
 70
0
 10
3.168746
 20
4.791824
 30
0.0
 10
3.142921
 20
4.630800
 30
0.0
  0
SPLINE
  5
1b3
100
AcDbEntity
  8
Layer_1
 62
7
100
AcDbSpline
 70
8
 71
3
 72
8
 73
4
 74
0
 40
0
 40
0
 40
0
 40
0
 40
1
 40
1
 40
1
 40
1
 10
3.128110
 20
4.623963
 30
0.0
 10
3.123046
 20
4.623963
 30
0.0
 10
3.120515
 20
4.627254
 30
0.0
 10
3.120515
 20
4.633837
 30
0.0
  0
SPLINE
  5
1b4
100
AcDbEntity
  8
Layer_1
 62
7
100
AcDbSpline
 70
8
 71
3
 72
8
 73
4
 74
0
 40
0
 40
0
 40
0
 40
0
 40
1
 40
1
 40
1
 40
1
 10
3.120515
 20
4.633837
 30
0.0
 10
3.126085
 20
4.670549
 30
0.0
 10
3.128870
 20
4.696500
 30
0.0
 10
3.128870
 20
4.711691
 30
0.0
  0
SPLINE
  5
1b5
100
AcDbEntity
  8
Layer_1
 62
7
100
AcDbSpline
 70
8
 71
3
 72
8
 73
4
 74
0
 40
0
 40
0
 40
0
 40
0
 40
1
 40
1
 40
1
 40
1
 10
3.128870
 20
4.711691
 30
0.0
 10
3.128870
 20
4.729920
 30
0.0
 10
3.125072
 20
4.743719
 30
0.0
 10
3.117476
 20
4.753086
 30
0.0
  0
SPLINE
  5
1b6
100
AcDbEntity
  8
Layer_1
 62
7
100
AcDbSpline
 70
8
 71
3
 72
8
 73
4
 74
0
 40
0
 40
0
 40
0
 40
0
 40
1
 40
1
 40
1
 40
1
 10
3.117476
 20
4.753086
 30
0.0
 10
3.109881
 20
4.762454
 30
0.0
 10
3.100007
 20
4.768404
 30
0.0
 10
3.087854
 20
4.770936
 30
0.0
  0
SPLINE
  5
1b7
100
AcDbEntity
  8
Layer_1
 62
7
100
AcDbSpline
 70
8
 71
3
 72
8
 73
4
 74
0
 40
0
 40
0
 40
0
 40
0
 40
1
 40
1
 40
1
 40
1
 10
3.087854
 20
4.770936
 30
0.0
 10
3.075701
 20
4.773469
 30
0.0
 10
3.059877
 20
4.774735
 30
0.0
 10
3.040382
 20
4.774735
 30
0.0
  0
LWPOLYLINE
  5
1b8
100
AcDbEntity
  8
Layer_1
 62
7
100
AcDbPolyline
 90
2
 70
0
 10
3.135326
 20
4.623963
 30
0.0
 10
3.128110
 20
4.623963
 30
0.0
  0
SPLINE
  5
1b9
100
AcDbEntity
  8
Layer_1
 62
7
100
AcDbSpline
 70
8
 71
3
 72
8
 73
4
 74
0
 40
0
 40
0
 40
0
 40
0
 40
1
 40
1
 40
1
 40
1
 10
2.994429
 20
4.774735
 30
0.0
 10
2.980504
 20
4.774735
 30
0.0
 10
2.971136
 20
4.773469
 30
0.0
 10
2.966326
 20
4.770936
 30
0.0
  0
SPLINE
  5
1ba
100
AcDbEntity
  8
Layer_1
 62
7
100
AcDbSpline
 70
8
 71
3
 72
8
 73
4
 74
0
 40
0
 40
0
 40
0
 40
0
 40
1
 40
1
 40
1
 40
1
 10
2.966326
 20
4.770936
 30
0.0
 10
2.961515
 20
4.768403
 30
0.0
 10
2.957464
 20
4.760807
 30
0.0
 10
2.954173
 20
4.748149
 30
0.0
  0
LWPOLYLINE
  5
1bb
100
AcDbEntity
  8
Layer_1
 62
7
100
AcDbPolyline
 90
2
 70
0
 10
3.040382
 20
4.774735
 30
0.0
 10
2.994429
 20
4.774735
 30
0.0
  0
SPLINE
  5
1bc
100
AcDbEntity
  8
Layer_1
 62
7
100
AcDbSpline
 70
8
 71
3
 72
8
 73
4
 74
0
 40
0
 40
0
 40
0
 40
0
 40
1
 40
1
 40
1
 40
1
 10
2.847456
 20
4.321282
 30
0.0
 10
2.847204
 20
4.320269
 30
0.0
 10
2.846951
 20
4.319256
 30
0.0
 10
2.846697
 20
4.318243
 30
0.0
  0
SPLINE
  5
1bd
100
AcDbEntity
  8
Layer_1
 62
7
100
AcDbSpline
 70
8
 71
3
 72
8
 73
4
 74
0
 40
0
 40
0
 40
0
 40
0
 40
1
 40
1
 40
1
 40
1
 10
2.846697
 20
4.318243
 30
0.0
 10
2.846697
 20
4.317229
 30
0.0
 10
2.846444
 20
4.315963
 30
0.0
 10
2.845937
 20
4.314443
 30
0.0
  0
SPLINE
  5
1be
100
AcDbEntity
  8
Layer_1
 62
7
100
AcDbSpline
 70
8
 71
3
 72
8
 73
4
 74
0
 40
0
 40
0
 40
0
 40
0
 40
1
 40
1
 40
1
 40
1
 10
2.845937
 20
4.314443
 30
0.0
 10
2.845937
 20
4.307861
 30
0.0
 10
2.849862
 20
4.303683
 30
0.0
 10
2.857710
 20
4.301911
 30
0.0
  0
SPLINE
  5
1bf
100
AcDbEntity
  8
Layer_1
 62
7
100
AcDbSpline
 70
8
 71
3
 72
8
 73
4
 74
0
 40
0
 40
0
 40
0
 40
0
 40
1
 40
1
 40
1
 40
1
 10
2.857710
 20
4.301911
 30
0.0
 10
2.871129
 20
4.299378
 30
0.0
 10
2.899865
 20
4.298111
 30
0.0
 10
2.943919
 20
4.298111
 30
0.0
  0
SPLINE
  5
1c0
100
AcDbEntity
  8
Layer_1
 62
7
100
AcDbSpline
 70
8
 71
3
 72
8
 73
4
 74
0
 40
0
 40
0
 40
0
 40
0
 40
1
 40
1
 40
1
 40
1
 10
2.943919
 20
4.298111
 30
0.0
 10
2.948983
 20
4.298111
 30
0.0
 10
2.951515
 20
4.294693
 30
0.0
 10
2.951515
 20
4.287857
 30
0.0
  0
SPLINE
  5
1c1
100
AcDbEntity
  8
Layer_1
 62
7
100
AcDbSpline
 70
8
 71
3
 72
8
 73
4
 74
0
 40
0
 40
0
 40
0
 40
0
 40
1
 40
1
 40
1
 40
1
 10
2.951515
 20
4.287857
 30
0.0
 10
2.949743
 20
4.280515
 30
0.0
 10
2.948350
 20
4.275831
 30
0.0
 10
2.947337
 20
4.273806
 30
0.0
  0
SPLINE
  5
1c2
100
AcDbEntity
  8
Layer_1
 62
7
100
AcDbSpline
 70
8
 71
3
 72
8
 73
4
 74
0
 40
0
 40
0
 40
0
 40
0
 40
1
 40
1
 40
1
 40
1
 10
2.947337
 20
4.273806
 30
0.0
 10
2.946324
 20
4.271780
 30
0.0
 10
2.943413
 20
4.270767
 30
0.0
 10
2.938602
 20
4.270767
 30
0.0
  0
LWPOLYLINE
  5
1c3
100
AcDbEntity
  8
Layer_1
 62
7
100
AcDbPolyline
 90
2
 70
0
 10
2.954173
 20
4.748149
 30
0.0
 10
2.847456
 20
4.321282
 30
0.0
  0
SPLINE
  5
1c4
100
AcDbEntity
  8
Layer_1
 62
7
100
AcDbSpline
 70
8
 71
3
 72
8
 73
4
 74
0
 40
0
 40
0
 40
0
 40
0
 40
1
 40
1
 40
1
 40
1
 10
2.663265
 20
4.270767
 30
0.0
 10
2.657949
 20
4.270767
 30
0.0
 10
2.655290
 20
4.274185
 30
0.0
 10
2.655290
 20
4.281020
 30
0.0
  0
LWPOLYLINE
  5
1c5
100
AcDbEntity
  8
Layer_1
 62
7
100
AcDbPolyline
 90
2
 70
0
 10
2.938602
 20
4.270767
 30
0.0
 10
2.663265
 20
4.270767
 30
0.0
  0
LWPOLYLINE
  5
1c6
100
AcDbEntity
  8
Layer_1
 62
7
100
AcDbPolyline
 90
1
 70
1
 10
2.655290
 20
4.281020
 30
0.0
  0
ENDSEC
  0
SECTION
  2
OBJECTS
  0
DICTIONARY
  5
C
330
0
100
AcDbDictionary
  3
ACAD_GROUP
350
D
  3
ACAD_MLINESTYLE
350
17
  0
DICTIONARY
  5
D
330
C
100
AcDbDictionary
  0
DICTIONARY
  5
1A
330
C
100
AcDbDictionary
  0
DICTIONARY
  5
17
330
C
100
AcDbDictionary
  3
STANDARD
350
18
  0
DICTIONARY
  5
19
330
C
100
AcDbDictionary
  0
ENDSEC
  0
EOF
